IKResults
version=1
nRows=4
nColumns=63
inDegrees=yes

Units are S.I. units (second, meters, Newtons, ...)
If the header above contains a line with 'inDegrees', this indicates whether rotational values are in degrees (yes) or radians (no).

endheader
time	pelvis_tilt	pelvis_list	pelvis_rotation	pelvis_tx	pelvis_ty	pelvis_tz	hip_flexion_r	hip_adduction_r	hip_rotation_r	knee_angle_r	knee_angle_r_beta	ankle_angle_r	subtalar_angle_r	mtp_angle_r	hip_flexion_l	hip_adduction_l	hip_rotation_l	knee_angle_l	knee_angle_l_beta	ankle_angle_l	subtalar_angle_l	mtp_angle_l	L5_S1_Flex_Ext	L5_S1_Lat_Bending	L5_S1_axial_rotation	L4_L5_Flex_Ext	L4_L5_Lat_Bending	L4_L5_axial_rotation	L3_L4_Flex_Ext	L3_L4_Lat_Bending	L3_L4_axial_rotation	L2_L3_Flex_Ext	L2_L3_Lat_Bending	L2_L3_axial_rotation	L1_L2_Flex_Ext	L1_L2_Lat_Bending	L1_L2_axial_rotation	L1_T12_Flex_Ext	L1_T12_Lat_Bending	L1_T12_axial_rotation	Abs_r3	Abs_r2	Abs_r1	Abs_t1	Abs_t2	neck_flexion	neck_bending	neck_rotation	arm_flex_r	arm_add_r	arm_rot_r	elbow_flex_r	pro_sup_r	wrist_flex_r	wrist_dev_r	arm_flex_l	arm_add_l	arm_rot_l	elbow_flex_l	pro_sup_l	wrist_flex_l	wrist_dev_l
      2.03333333	      0.52366696	     18.41855464	     48.12968636	     -0.88860076	      0.66429868	     -0.28178861	     65.50797877	    -16.07946541	      7.57193787	     84.26473235	      1.47069702	     19.80458060	    -19.57999921	      0.00000000	     55.62112553	    -16.31039745	    -25.07191289	     82.67346422	      1.44292415	     11.18040898	    -19.31304108	      0.00000000	     -7.85475851	     -1.68906544	      0.49593745	    -14.58707202	     -2.24645703	      0.52693354	    -12.90458275	     -4.10679371	      0.52693354	     -8.97720350	     -4.10679371	      0.43394527	     -7.29392875	     -3.44434224	      0.40294918	     -4.48820901	     -2.61636236	      0.37195309	    -56.10575454	    -19.10704606	      2.75825530	      0.00000000	      0.00000000	     28.34042306	      2.20474797	    -43.35820358	    -37.98010591	    -35.10835192	    -11.58744819	    102.92166884	     89.99559364	      0.00000000	      0.00000000	    -24.02686974	    -42.04397024	    -15.83676879	    109.10941641	     89.99559364	      0.00000000	      0.00000000
      2.06666667	      1.80003124	     20.00036069	     48.01001219	     -0.89562685	      0.66014039	     -0.27535414	     64.47180635	    -16.42332336	      7.69471096	     84.46388936	      1.47417297	     19.23097592	    -19.58379738	      0.00000000	     54.51930264	    -16.09308027	    -25.19152741	     82.79302907	      1.44501095	     10.65703520	    -19.31125479	      0.00000000	     -7.89172977	     -1.67698216	      0.54269283	    -14.65573135	     -2.23038628	      0.57661113	    -12.96532283	     -4.07741443	      0.57661113	     -9.01945795	     -4.07741443	      0.47485622	     -7.32826026	     -3.41970203	      0.44093792	     -4.50933439	     -2.59764537	      0.40701962	    -56.36983655	    -18.97035764	      3.01829470	      0.00000000	      0.00000000	     28.30197111	      2.90205402	    -42.91299137	    -38.42445325	    -35.45985335	    -13.31917812	    104.38596061	     89.99559364	      0.00000000	      0.00000000	    -24.56875585	    -42.60353188	    -16.99143450	    108.80512306	     89.99559364	      0.00000000	      0.00000000
      2.10000000	      4.94673764	     23.71871939	     47.17545637	     -0.90347188	      0.66534189	     -0.26774232	     59.62313286	    -17.19407945	      7.58586993	     83.66284364	      1.46019208	     18.82447116	    -19.57701498	      0.00000000	     49.48883535	    -15.41888074	    -25.82254932	     81.80102022	      1.42769713	     10.17355245	    -19.28327890	      0.00000000	     -8.42970546	     -1.67272194	      0.54922385	    -15.65480601	     -2.22472019	      0.58355034	    -13.84916310	     -4.06705614	      0.58355034	     -9.63431037	     -4.06705614	      0.48057087	     -7.82782449	     -3.41101459	      0.44624438	     -4.81673370	     -2.59104629	      0.41191789	    -60.21254312	    -18.92216518	      3.05461829	      0.00000000	      0.00000000	     28.31227916	      2.88389106	    -42.92621802	    -37.27377115	    -36.19251845	    -14.61475786	    105.43737758	     89.99559364	      0.00000000	      0.00000000	    -23.58885862	    -43.11898703	    -17.29979637	    108.25933344	     89.99559364	      0.00000000	      0.00000000
      2.13333333	      7.03016905	     26.31046312	     46.23471893	     -0.91010562	      0.66640315	     -0.26097463	     56.78493093	    -17.52542768	      7.88948491	     83.20793748	      1.45225247	     18.35674500	    -19.57806203	      0.00000000	     46.24400898	    -15.10562184	    -26.61827630	     81.17827954	      1.41682826	      9.67522536	    -19.27088466	      0.00000000	     -8.66385084	     -1.70157884	      0.59011888	    -16.08963739	     -2.26309986	      0.62700131	    -14.23384054	     -4.13721879	      0.62700131	     -9.90191512	     -4.13721879	      0.51635402	     -8.04525189	     -3.46985957	      0.47947159	     -4.95052437	     -2.63574562	      0.44258916	    -61.88502016	    -19.24860015	      3.28206419	      0.00000000	      0.00000000	     28.29326932	      3.28694964	    -42.51381580	    -36.42726413	    -36.57644507	    -15.79587285	    106.27687054	     89.99559364	      0.00000000	      0.00000000	    -23.48452019	    -43.49573173	    -17.99145929	    108.05720415	     89.99559364	      0.00000000	      0.00000000
